# xmcd CD database file
#
# Track frame offsets:
#	150
#	18462
#	34778
#	49272
#	65519
#	82581
#	101784
#	124163
#	140473
#	155219
#	168604
#	188583
#	200404
#	220033
#
# Disc length: 3071 seconds
#
# Revision: 0
# Processed by: cddbd v1.5.2PL0 Copyright (c) Steve Scherf et al.
# Submitted via: CDex 1.70beta2
#
DISCID=c30bfd0e
DTITLE=한빛실버찬양 - Hanbit body cd1
DYEAR=200805
DGENRE=Blues
TTITLE0=하늘가는밝은길이
TTITLE1=주하나님 지으신모든세계
TTITLE2=주안에 있는 나에게
TTITLE3=내구주 예수를 더욱사랑
TTITLE4=나의힘이되신 여호와
TTITLE5=여기에 모인우리
TTITLE6=하나님의사랑을 사모하는자
TTITLE7=나같은 죄인살리신
TTITLE8=나같은 죄신살리신(합창)
TTITLE9=내영혼이 은총입어
TTITLE10=하나님이시여
TTITLE11=선포하라
TTITLE12=예수우리왕이여
TTITLE13=하나님의나팔소리
EXTD=YEAR: 200805
EXTT0=
EXTT1=
EXTT2=
EXTT3=
EXTT4=
EXTT5=
EXTT6=
EXTT7=
EXTT8=
EXTT9=
EXTT10=
EXTT11=
EXTT12=
EXTT13=
PLAYORDER=
